<?xml version="1.0" encoding="utf-8"?>
<!-- Generator: Adobe Illustrator 24.1.3, SVG Export Plug-In . SVG Version: 6.00 Build 0)  -->
<svg version="1.1" id="Layer_1" xmlns="http://www.w3.org/2000/svg" xmlns:xlink="http://www.w3.org/1999/xlink" x="0px" y="0px"
	 viewBox="0 0 500 500" style="enable-background:new 0 0 500 500;" xml:space="preserve">
<style type="text/css">
	.st0{fill:url(#SVGID_1_);}
</style>
<g>
	<linearGradient id="SVGID_1_" gradientUnits="userSpaceOnUse" x1="0" y1="250" x2="500" y2="250">
		<stop  offset="0" style="stop-color:#4700FF"/>
		<stop  offset="1" style="stop-color:#5FB0FF"/>
	</linearGradient>
	<path class="st0" d="M250,60c50.75,0,98.46,19.76,134.35,55.65C420.24,151.54,440,199.25,440,250s-19.76,98.46-55.65,134.35
		C348.46,420.24,300.75,440,250,440s-98.46-19.76-134.35-55.65C79.76,348.46,60,300.75,60,250s19.76-98.46,55.65-134.35
		C151.54,79.76,199.25,60,250,60 M250,0C111.93,0,0,111.93,0,250s111.93,250,250,250s250-111.93,250-250S388.07,0,250,0L250,0z"/>
</g>
</svg>
