<?xml version="1.0" encoding="utf-8"?>
<!-- Generator: Adobe Illustrator 24.1.3, SVG Export Plug-In . SVG Version: 6.00 Build 0)  -->
<svg version="1.1" id="Layer_1" xmlns="http://www.w3.org/2000/svg" xmlns:xlink="http://www.w3.org/1999/xlink" x="0px" y="0px"
	 viewBox="0 0 79.9 37.4" style="enable-background:new 0 0 79.9 37.4;" xml:space="preserve">
<style type="text/css">
	.st0{fill:#FFFFFF;}
</style>
<path class="st0" d="M0,0h23.6v4.2h-19v11.9h15.8v4.2H4.6v12.5h19.7V37H0V0z"/>
<path class="st0" d="M28.6,0h4.3v24.6l13.7-14.5h5.2L41.4,21.1L52.5,37h-5.2l-9-12.8l-5.4,5.7V37h-4.3V0z"/>
<path class="st0" d="M66.5,37.4c-2.6,0-4.9-0.6-7-1.7c-2-1.2-3.6-2.8-4.7-4.9c-1.1-2.1-1.7-4.5-1.7-7.2s0.6-5.1,1.7-7.2
	c1.1-2.1,2.7-3.7,4.7-4.9c2-1.2,4.4-1.7,7-1.7c2.6,0,4.9,0.6,6.9,1.7c2,1.2,3.6,2.8,4.8,4.9c1.1,2.1,1.7,4.5,1.7,7.2
	s-0.6,5.1-1.7,7.2c-1.1,2.1-2.7,3.7-4.8,4.9C71.4,36.8,69.1,37.4,66.5,37.4z M66.5,33.5c1.8,0,3.3-0.4,4.7-1.3
	c1.4-0.8,2.4-2,3.2-3.5c0.7-1.5,1.1-3.2,1.1-5.1c0-1.9-0.4-3.6-1.1-5.1c-0.7-1.5-1.8-2.7-3.2-3.5c-1.3-0.8-2.9-1.3-4.7-1.3
	s-3.3,0.4-4.7,1.3c-1.3,0.8-2.4,2-3.1,3.5c-0.7,1.5-1.1,3.2-1.1,5.1c0,1.9,0.4,3.6,1.1,5.1c0.7,1.5,1.8,2.7,3.1,3.5
	C63.2,33.1,64.8,33.5,66.5,33.5z"/>
</svg>
