<?xml version="1.0" encoding="utf-8"?>
<!-- Generator: Adobe Illustrator 24.1.3, SVG Export Plug-In . SVG Version: 6.00 Build 0)  -->
<svg version="1.1" id="Layer_1" xmlns="http://www.w3.org/2000/svg" xmlns:xlink="http://www.w3.org/1999/xlink" x="0px" y="0px"
	 viewBox="0 0 785.6 127.5" style="enable-background:new 0 0 785.6 127.5;" xml:space="preserve">
<style type="text/css">
	.st0{fill:#FFFFFF;}
</style>
<g>
	<g>
		<path class="st0" d="M162.6,23.7h28.3c16.5,0,29.7,4.2,29.7,19.9c0,6.9-3.8,14.7-13.1,17.3v0.5c11.1,2.2,16.7,8,16.7,18.6
			c0,16.4-14,23.6-30.9,23.6h-30.7V23.7z M189.5,55.3c6.8,0,9.9-3.3,9.9-8.2s-3.1-6.8-9.9-6.8h-6.9v15H189.5z M190.7,87
			c8,0,11.7-3,11.7-8.6s-3.7-8-11.7-8h-8.2V87H190.7z"/>
		<path class="st0" d="M234,18.7h21.8v64.1c0,4.2,2.1,5.3,3.6,5.3c0.7,0,1.2,0,2.3-0.2l2.6,15.3c-2.3,1-5.9,1.7-10.6,1.7
			c-14.7,0-19.6-9.3-19.6-23L234,18.7L234,18.7z"/>
		<path class="st0" d="M298.4,40.9c15.6,0,30.3,11.7,30.3,32s-14.7,32-30.3,32c-15.6,0-30.3-11.7-30.3-32
			C268.1,52.5,282.8,40.9,298.4,40.9z M298.4,87.8c6.3,0,8.8-5.8,8.8-15.2s-2.5-15.2-8.8-15.2s-8.8,5.8-8.8,15.2
			S292.1,87.8,298.4,87.8z"/>
		<path class="st0" d="M369,40.9c7.3,0,13.7,2.7,17.8,6.8l-9.5,13c-2.7-2.2-4.8-3-7-3c-7.8,0-12.5,5.8-12.5,15.2s5.2,15.2,11.7,15.2
			c3.8,0,7-2,9.8-3.8l8.3,13.2c-6.2,5.3-14.2,7.5-20.5,7.5c-17.3,0-30.8-11.7-30.8-32S351.7,40.9,369,40.9z"/>
		<path class="st0" d="M397.3,18.7h20v45h0.5L435,42h22.7l-21.9,25.6l23.1,36h-23.6L423.4,82l-6.2,7v14.7h-20L397.3,18.7L397.3,18.7
			z"/>
		<path class="st0" d="M531,87h-21.9l-4,16.6h-21.9l24.4-79.9h25.5l24.5,79.9H535L531,87z M527.2,70.3l-1.3-5.4
			c-2-7.3-3.7-16.8-5.7-24.6h-0.5c-1.6,7.8-3.6,17.1-5.5,24.6l-1.3,5.4H527.2z"/>
		<path class="st0" d="M561.9,42h18l1.4,10h0.5c4.3-7.9,10.8-11.4,16.5-11.4c3.6,0,5.5,0.5,7.1,1.1l-3.2,17.1c-2.1-0.5-4-1-6.5-1
			c-4.1,0-9.4,2.5-12.1,9.7v36.1H562L561.9,42L561.9,42z"/>
		<path class="st0" d="M613.6,42h18l1.4,10h0.5c4.3-7.9,10.8-11.4,16.5-11.4c3.6,0,5.5,0.5,7.1,1.1l-3.2,17.1c-2.1-0.5-4-1-6.5-1
			c-4.1,0-9.4,2.5-12.1,9.7v36.1h-21.6V42H613.6z"/>
		<path class="st0" d="M692.5,63.7c-0.5-4.3-3.2-6.3-8.5-6.3c-4.3,0-9,1.7-15.3,5.2l-7.3-13.7c8.5-5.2,17.3-8,26.8-8
			c15.8,0,25.3,8.5,25.5,28.5v34.3h-17.3l-1.5-6.7h-0.5c-4.8,4.9-10.3,7.9-16.8,7.9c-11.5,0-18.3-8.8-18.3-18.8
			C659.3,73.2,669.2,66.2,692.5,63.7z M684.5,88.7c3.3,0,5.3-1.7,7.5-4.2v-8.3c-10,1.5-13.2,4.7-13.2,8
			C678.8,87,680.8,88.7,684.5,88.7z"/>
		<path class="st0" d="M734.4,111c5.8,0,8.5-2.5,9.7-6.3l0.7-2.7l-23.6-60h21.4l7.5,24c1.7,5.8,3.1,11.4,4.4,17.7h0.5
			c1.2-5.9,2.5-11.7,3.9-17.7l6.3-24h20.4l-20.9,61.2c-6.5,16.8-13.3,24.3-28.5,24.3c-4.2,0-6.8-0.5-9.5-1.2l3.7-16.1
			C731.5,110.5,733,111,734.4,111z"/>
	</g>
</g>
<g>
	<path class="st0" d="M118.6,99.9l-54.8,19.3c-1.4,0.5-3,0.5-4.3,0l-55-19.3c-2.6-0.9-4.3-3.4-4.3-6.1v7.8c0,2.8,1.7,5.2,4.3,6.1
		L59.3,127c1.4,0.5,3,0.5,4.3,0l54.8-19.3c2.6-0.9,4.3-3.4,4.3-6.1v-7.8C122.9,96.6,121.2,99,118.6,99.9z"/>
	<path class="st0" d="M118.6,86.1l-54.8,19.3c-1.4,0.5-3,0.5-4.3,0l-55-19.3c-2.6-1-4.3-3.4-4.3-6.2v7.9c0,2.8,1.7,5.2,4.3,6.1
		l54.8,19.3c1.4,0.5,3,0.5,4.3,0l54.8-19.3c2.6-0.9,4.3-3.4,4.3-6.1V80C122.9,82.7,121.2,85.1,118.6,86.1z"/>
	<path class="st0" d="M118.6,72.2L63.8,91.6c-1.4,0.5-3,0.5-4.3,0l-55-19.3c-2.6-0.9-4.3-3.4-4.3-6.1V74c0,2.8,1.7,5.2,4.3,6.1
		l54.9,19.4c1.4,0.5,3,0.5,4.3,0l54.8-19.3c2.6-0.9,4.3-3.4,4.3-6.1v-7.8C122.9,68.8,121.2,71.3,118.6,72.2z"/>
	<path class="st0" d="M0,25.9v34.2c0,2.8,1.7,5.2,4.3,6.1l54.8,19.3c1.4,0.5,3,0.5,4.3,0l55-19.3c2.6-0.9,4.3-3.4,4.3-6.1V25.9
		c0-2.8-1.7-5.2-4.3-6.1L63.5,0.4c-1.4-0.5-3-0.5-4.3,0L4.3,19.8C1.7,20.7,0,23.2,0,25.9z"/>
</g>
</svg>
