<?xml version="1.0" encoding="utf-8"?>
<!-- Generator: Adobe Illustrator 24.1.3, SVG Export Plug-In . SVG Version: 6.00 Build 0)  -->
<svg version="1.1" id="Layer_1" xmlns="http://www.w3.org/2000/svg" xmlns:xlink="http://www.w3.org/1999/xlink" x="0px" y="0px"
	 viewBox="0 0 275 67" style="enable-background:new 0 0 275 67;" xml:space="preserve">
<style type="text/css">
	.st0{fill:#FFF8F8;}
</style>
<g>
	<g>
		<path class="st0" d="M133.6,59.4c0,0,5.1-0.1,6.1-0.1c1.3,0,2.3-0.5,3.1-1.6s1.7-2.7,2.6-4.9l1.2-3l-16.7-36.9h10.8l10.6,25.5
			l9.4-25.5h10.2l-15.6,37.2c-0.7,1.8-1.5,3.8-2.2,5.7c-0.8,2-1.6,3.8-2.7,5.4c-1.1,1.7-2.4,3-4,4.1s-3.6,1.6-6,1.6
			c-2.1,0-6.7,0-6.7,0L133.6,59.4z"/>
		<path class="st0" d="M226.8,27.6c0-1-0.2-1.9-0.6-2.9c-0.4-1-0.9-1.8-1.6-2.6c-0.7-0.8-1.6-1.4-2.7-1.9c-1.1-0.5-2.4-0.8-3.8-0.8
			c-1.5,0-2.9,0.3-4.1,0.8c-1.2,0.5-2.2,1.1-3,1.9s-1.4,1.6-1.8,2.6s-0.6,1.9-0.6,2.9H226.8z M235.9,44.8c-0.2,0.2-0.6,0.6-1.3,1.3
			s-1.7,1.5-3.1,2.3c-1.4,0.8-3.1,1.5-5.2,2.1c-2.1,0.6-4.6,1-7.5,1c-3,0-5.6-0.5-8.1-1.5c-2.4-1-4.5-2.4-6.2-4.2s-3-3.9-4-6.4
			c-0.9-2.5-1.4-5.2-1.4-8.2c0-2.7,0.5-5.3,1.4-7.6c0.9-2.4,2.2-4.4,3.9-6.1s3.6-3.1,5.9-4.1c2.3-1,4.8-1.5,7.6-1.5
			c3.4,0,6.2,0.6,8.6,1.9c2.4,1.2,4.2,2.9,5.7,4.9s2.4,4.3,3.1,6.8s0.9,5.1,0.9,7.8v1.3h-27.7c0,1.4,0.3,2.6,0.9,3.7
			s1.4,2.1,2.4,2.8c1,0.8,2.1,1.4,3.3,1.8c1.2,0.4,2.5,0.6,3.7,0.6c1.8,0,3.4-0.2,4.7-0.5s2.5-0.7,3.5-1.2c0.9-0.5,1.7-0.9,2.3-1.4
			s1.1-0.9,1.4-1.2L235.9,44.8z"/>
		<path class="st0" d="M240.5,12.9H259c4.5,0,10.1,0.6,12.5,3.4s3.6,6.5,3.6,11.2v23.8h-9.4V27.6c0-2.4-0.6-4.2-1.9-5.5
			c-1.3-1.3-4.6-1.5-4.6-1.5h-9.3v30.8h-9.4L240.5,12.9L240.5,12.9z"/>
		<path class="st0" d="M125.6,12.9C124.4,13,106,13.5,106,31.2v20.1h9.4V30.8c0-1.4,0.4-4.6,2.8-6.6c4.3-3.5,10.8-3.3,10.8-3.3
			L125.6,12.9z"/>
		<path class="st0" d="M197.2,43.5h-5.1c-1.6,0-2.7-0.6-3.5-1.8c-0.7-1.1-1.1-2.8-1.1-4.9V20.6h10V13h-10V1h-9.4v12H175l-3.2,7.6
			h6.3v16.9c0,2.1,0.2,4,0.6,5.7s1.1,3.2,2.1,4.4s2.3,2.2,3.8,2.8c1.6,0.7,3.5,1,5.8,1h6.6v-7.9H197.2z"/>
		<path class="st0" d="M102.2,43.5h-5.1c-1.6,0-2.7-0.6-3.5-1.8c-0.7-1.1-1.1-2.8-1.1-4.9V20.6h10V13h-10V1h-9.4v12h-3.2l-3.2,7.6
			H83v16.9c0,2.1,0.2,4,0.6,5.7s1.1,3.2,2.1,4.4s2.3,2.2,3.8,2.8c1.6,0.7,3.6,1,5.8,1c2.2,0,6.6,0,6.6,0L102.2,43.5z"/>
	</g>
	<polygon class="st0" points="33.3,24.9 61.6,20.4 43.7,51.3 17.8,51.3 	"/>
	<polygon class="st0" points="11,0.9 -0.1,20.4 61.6,20.4 72.8,0.9 	"/>
</g>
</svg>
