<?xml version="1.0" encoding="utf-8"?>
<!-- Generator: Adobe Illustrator 24.1.3, SVG Export Plug-In . SVG Version: 6.00 Build 0)  -->
<svg version="1.1" xmlns="http://www.w3.org/2000/svg" xmlns:xlink="http://www.w3.org/1999/xlink" x="0px" y="0px"
	 viewBox="0 0 1168.41 612.02" style="enable-background:new 0 0 1168.41 612.02;" xml:space="preserve">
<style type="text/css">
	.st0{fill:#0C0C0C;stroke:#FFFFFF;stroke-miterlimit:10;}
	.st1{fill:none;stroke:#000000;stroke-miterlimit:10;}
	.st2{fill:#282828;stroke:#FFFFFF;stroke-miterlimit:10;}
	.st3{fill:#FFFFFF;stroke:#000000;stroke-miterlimit:10;}
	.st4{font-family:'Arial-BoldMT';}
	.st5{font-size:5px;}
	.st6{font-size:6px;}
	.st7{font-family:'ArialMT';}
	.st8{font-size:4px;}
	.st9{font-size:3px;}
	.st10{fill:#E0E0E0;stroke:#000000;stroke-miterlimit:10;}
	.st11{fill:none;}
</style>
<g id="bk">
</g>
<g id="site3">
	<rect x="585.6" y="0.5" class="st0" width="369.86" height="596.87"/>
	<rect x="832.84" y="510.52" class="st1" width="32.88" height="9.95"/>
	<rect x="868.34" y="510.52" class="st1" width="32.88" height="9.95"/>
	<rect x="903.85" y="510.52" class="st1" width="32.88" height="9.95"/>
	<rect x="585.63" y="0.63" class="st2" width="369.82" height="17.87"/>
	<rect x="585.65" y="591.33" class="st2" width="369.82" height="6.59"/>
	<rect x="618.29" y="6.61" class="st3" width="304.49" height="5.9"/>
	<g>
		<rect x="865.64" y="172.36" class="st1" width="72.5" height="66"/>
		<line class="st1" x1="865.69" y1="238.16" x2="937.93" y2="172.59"/>
		<line class="st1" x1="865.38" y1="172.14" x2="938.23" y2="238.31"/>
	</g>
	<g>
		<rect x="609.66" y="449.88" class="st1" width="328.45" height="28.76"/>
		<line class="st1" x1="609.88" y1="478.56" x2="937.17" y2="449.98"/>
		<line class="st1" x1="608.51" y1="449.78" x2="938.55" y2="478.62"/>
	</g>
	<g>
		<rect x="585.72" y="42.71" class="st1" width="369.06" height="100.57"/>
		<line class="st1" x1="585.97" y1="142.96" x2="953.72" y2="43.05"/>
		<line class="st1" x1="585.63" y1="42.92" x2="955.27" y2="143.19"/>
	</g>
	<g>
		<rect x="606.35" y="22.36" class="st1" width="45.53" height="16.02"/>
		<line class="st1" x1="606.38" y1="38.32" x2="651.75" y2="22.41"/>
		<line class="st1" x1="606.19" y1="22.3" x2="651.94" y2="38.36"/>
	</g>
	<line class="st1" x1="585.4" y1="562.03" x2="955.52" y2="562.03"/>
	<line class="st1" x1="585.4" y1="490.9" x2="955.52" y2="490.9"/>
	<line class="st1" x1="585.4" y1="433.89" x2="955.52" y2="433.89"/>
	<text transform="matrix(1 0 0 1 609.8499 510.0629)" class="st4 st5">Lorem Ipsum</text>
	<text transform="matrix(1 0 0 1 609.8499 578.1906)" class="st4 st5">Lorem Ipsum Cit Dolor Amet</text>
	
		<rect x="835.16" y="25.36" transform="matrix(1 2.442359e-03 -2.442359e-03 1 0.0766 -2.0798)" class="st1" width="32.88" height="9.95"/>
	<rect x="870.66" y="25.36" class="st1" width="32.88" height="9.95"/>
	
		<rect x="906.17" y="25.36" transform="matrix(1 2.442359e-03 -2.442359e-03 1 0.0768 -2.2532)" class="st1" width="32.88" height="9.95"/>
	<text transform="matrix(1 0 0 1 666.5728 31.7816)" class="st4 st6">Lorem Ipsum</text>
	<text transform="matrix(1 0 0 1 609.8499 523.5632)" class="st7 st8">Lorem Ipsum</text>
	<text transform="matrix(1 0 0 1 609.8499 528.1434)" class="st7 st8">Lorem Ipsum</text>
	<text transform="matrix(1 0 0 1 609.8499 532.7236)" class="st7 st8">Lorem Ipsum</text>
	<text transform="matrix(1 0 0 1 609.8499 537.3037)" class="st7 st8">Lorem Ipsum</text>
	<text transform="matrix(1 0 0 1 690.5732 523.5632)" class="st7 st8">Lorem Ipsum</text>
	<text transform="matrix(1 0 0 1 690.5732 528.1434)" class="st7 st8">Lorem Ipsum</text>
	<text transform="matrix(1 0 0 1 690.5732 532.7236)" class="st7 st8">Lorem Ipsum</text>
	<text transform="matrix(1 0 0 1 690.5732 537.3037)" class="st7 st8">Lorem Ipsum</text>
	<text transform="matrix(1 0 0 1 690.5732 542.1455)" class="st7 st8">Lorem Ipsum</text>
	<text transform="matrix(1 0 0 1 865.1431 247.4762)" class="st7 st9">Lorem Ipsum</text>
	<text transform="matrix(1 0 0 1 865.1431 252.3856)" class="st7 st9">Lorem Ipsum</text>
	<text transform="matrix(1 0 0 1 865.1431 257.295)" class="st7 st9">Lorem Ipsum</text>
	<text transform="matrix(1 0 0 1 865.1431 262.2044)" class="st7 st9">Lorem Ipsum</text>
	<text transform="matrix(1 0 0 1 771.2964 523.5632)" class="st7 st8">Lorem Ipsum</text>
	<text transform="matrix(1 0 0 1 771.2964 528.1434)" class="st7 st8">Lorem Ipsum</text>
	<text transform="matrix(1 0 0 1 771.2964 532.7236)" class="st7 st8">Lorem Ipsum</text>
	<text transform="matrix(1 0 0 1 852.0198 523.5632)" class="st7 st8">Lorem Ipsum</text>
	<text transform="matrix(1 0 0 1 852.0198 528.1434)" class="st7 st8">Lorem Ipsum</text>
	<text transform="matrix(1 0 0 1 852.0198 532.7236)" class="st7 st8">Lorem Ipsum</text>
	<text transform="matrix(1 0 0 1 852.0198 537.3037)" class="st7 st8">Lorem Ipsum</text>
	<text transform="matrix(1 0 0 1 690.2821 510.0629)" class="st4 st5">Lorem Ipsum</text>
	<text transform="matrix(1 0 0 1 770.7138 510.0629)" class="st4 st5">Lorem Ipsum</text>
	<text transform="matrix(1 0 0 1 851.1459 510.0629)" class="st4 st5">Lorem Ipsum</text>
	<g>
		<g>
			<rect x="608.76" y="162.16" class="st1" width="72.5" height="66"/>
			<line class="st1" x1="608.81" y1="227.95" x2="681.05" y2="162.38"/>
			<line class="st1" x1="608.51" y1="161.93" x2="681.36" y2="228.1"/>
		</g>
		<rect x="610.87" y="228.15" class="st1" width="70.38" height="13.34"/>
		<text transform="matrix(1 0 0 1 628.5483 235.5413)" class="st4 st5">Lorem ipsum</text>
	</g>
	<g>
		<g>
			<rect x="694.83" y="162.16" class="st1" width="72.5" height="66"/>
			<line class="st1" x1="694.88" y1="227.95" x2="767.12" y2="162.38"/>
			<line class="st1" x1="694.57" y1="161.93" x2="767.42" y2="228.1"/>
		</g>
		<rect x="694.82" y="228.15" class="st1" width="72.5" height="13.34"/>
		<text transform="matrix(1 0 0 1 714.6157 235.5413)" class="st4 st5">Lorem ipsum</text>
	</g>
	<g>
		<g>
			<rect x="777.96" y="162.16" class="st1" width="72.5" height="66"/>
			<line class="st1" x1="778.01" y1="227.95" x2="850.26" y2="162.38"/>
			<line class="st1" x1="777.71" y1="161.93" x2="850.56" y2="228.1"/>
		</g>
		<rect x="777.96" y="228.15" class="st1" width="72.5" height="13.34"/>
		<text transform="matrix(1 0 0 1 797.7509 235.5413)" class="st4 st5">Lorem ipsum</text>
	</g>
	<g>
		<g>
			<rect x="608.76" y="249.29" class="st1" width="72.5" height="66"/>
			<line class="st1" x1="608.81" y1="315.08" x2="681.05" y2="249.52"/>
			<line class="st1" x1="608.51" y1="249.06" x2="681.36" y2="315.24"/>
		</g>
		<rect x="610.87" y="315.28" class="st1" width="70.38" height="13.34"/>
		<text transform="matrix(1 0 0 1 628.5483 322.6801)" class="st4 st5">Lorem ipsum</text>
	</g>
	<g>
		<g>
			<rect x="694.83" y="249.29" class="st1" width="72.5" height="66"/>
			<line class="st1" x1="694.88" y1="315.08" x2="767.12" y2="249.52"/>
			<line class="st1" x1="694.57" y1="249.06" x2="767.42" y2="315.24"/>
		</g>
		<rect x="694.82" y="315.28" class="st1" width="72.5" height="13.34"/>
		<text transform="matrix(1 0 0 1 714.6157 322.6801)" class="st4 st5">Lorem ipsum</text>
	</g>
	<g>
		<g>
			<rect x="777.96" y="249.29" class="st1" width="72.5" height="66"/>
			<line class="st1" x1="778.01" y1="315.08" x2="850.26" y2="249.52"/>
			<line class="st1" x1="777.71" y1="249.06" x2="850.56" y2="315.24"/>
		</g>
		<rect x="777.96" y="315.28" class="st1" width="72.5" height="13.34"/>
		<text transform="matrix(1 0 0 1 797.7509 322.6801)" class="st4 st5">Lorem ipsum</text>
	</g>
	<g>
		<g>
			<rect x="608.76" y="336.43" class="st1" width="72.5" height="66"/>
			<line class="st1" x1="608.81" y1="402.22" x2="681.05" y2="336.66"/>
			<line class="st1" x1="608.51" y1="336.2" x2="681.36" y2="402.38"/>
		</g>
		<rect x="610.87" y="402.42" class="st1" width="70.38" height="13.34"/>
		<text transform="matrix(1 0 0 1 628.5483 409.8191)" class="st4 st5">Lorem ipsum</text>
	</g>
	<g>
		<g>
			<rect x="694.83" y="336.43" class="st1" width="72.5" height="66"/>
			<line class="st1" x1="694.88" y1="402.22" x2="767.12" y2="336.66"/>
			<line class="st1" x1="694.57" y1="336.2" x2="767.42" y2="402.38"/>
		</g>
		<rect x="694.82" y="402.42" class="st1" width="72.5" height="13.34"/>
		<text transform="matrix(1 0 0 1 714.6157 409.8191)" class="st4 st5">Lorem ipsum</text>
	</g>
	<g>
		<g>
			<rect x="777.96" y="336.43" class="st1" width="72.5" height="66"/>
			<line class="st1" x1="778.01" y1="402.22" x2="850.26" y2="336.66"/>
			<line class="st1" x1="777.71" y1="336.2" x2="850.56" y2="402.38"/>
		</g>
		<rect x="777.96" y="402.42" class="st1" width="72.5" height="13.34"/>
		<text transform="matrix(1 0 0 1 797.7509 409.8191)" class="st4 st5">Lorem ipsum</text>
	</g>
</g>
<g id="site4">
	<rect x="0.5" y="1.54" class="st0" width="369.86" height="495.02"/>
	<rect x="247.73" y="511.56" class="st1" width="32.88" height="9.95"/>
	<rect x="283.24" y="511.56" class="st1" width="32.88" height="9.95"/>
	<rect x="318.75" y="511.56" class="st1" width="32.88" height="9.95"/>
	<rect x="0.53" y="1.67" class="st2" width="369.82" height="17.87"/>
	<rect x="0.55" y="490.37" class="st2" width="369.82" height="6.59"/>
	<rect x="33.19" y="7.65" class="st3" width="304.49" height="5.9"/>
	<g>
		<rect x="24.56" y="346.58" class="st1" width="328.45" height="28.76"/>
		<line class="st1" x1="24.78" y1="375.25" x2="352.07" y2="346.68"/>
		<line class="st1" x1="23.4" y1="346.48" x2="353.44" y2="375.32"/>
	</g>
	<g>
		<rect x="28.5" y="227.27" class="st1" width="101.01" height="99.04"/>
		<line class="st1" x1="28.57" y1="325.99" x2="129.22" y2="227.61"/>
		<line class="st1" x1="28.14" y1="226.92" x2="129.64" y2="326.22"/>
	</g>
	<g>
		<rect x="140.4" y="227.27" class="st1" width="101.01" height="99.04"/>
		<line class="st1" x1="140.47" y1="325.99" x2="241.12" y2="227.61"/>
		<line class="st1" x1="140.04" y1="226.92" x2="241.54" y2="326.22"/>
	</g>
	<g>
		<rect x="252.3" y="227.27" class="st1" width="101.01" height="99.04"/>
		<line class="st1" x1="252.37" y1="325.99" x2="353.02" y2="227.61"/>
		<line class="st1" x1="251.94" y1="226.92" x2="353.44" y2="326.22"/>
	</g>
	<g>
		<rect x="0.62" y="43.75" class="st1" width="369.63" height="167.47"/>
		<line class="st1" x1="0.87" y1="210.69" x2="370.02" y2="43.76"/>
		<line class="st1" x1="0.52" y1="44.1" x2="370.35" y2="211.08"/>
	</g>
	<g>
		<rect x="21.25" y="23.4" class="st1" width="45.53" height="16.02"/>
		<line class="st1" x1="21.28" y1="39.37" x2="66.65" y2="23.45"/>
		<line class="st1" x1="21.09" y1="23.34" x2="66.84" y2="39.4"/>
	</g>
	<line class="st1" x1="0.29" y1="461.07" x2="370.41" y2="461.07"/>
	<line class="st1" x1="0.29" y1="389.07" x2="370.41" y2="389.07"/>
	<text transform="matrix(1 0 0 1 24.7475 408.2338)" class="st4 st5">Lorem Ipsum</text>
	<text transform="matrix(1 0 0 1 24.7475 477.2338)" class="st4 st5">Lorem Ipsum Cit Dolor Amet</text>
	
		<rect x="250.05" y="26.4" transform="matrix(1 2.442359e-03 -2.442359e-03 1 0.0774 -0.6508)" class="st1" width="32.88" height="9.95"/>
	<rect x="285.56" y="26.4" class="st1" width="32.88" height="9.95"/>
	
		<rect x="321.07" y="26.4" transform="matrix(1 2.442359e-03 -2.442359e-03 1 0.0776 -0.8242)" class="st1" width="32.88" height="9.95"/>
	<text transform="matrix(1 0 0 1 81.4705 32.8249)" class="st4 st6">Lorem Ipsum</text>
	<text transform="matrix(1 0 0 1 35.3325 320.0992)" class="st4 st6">Lorem Ipsum cit dolor amet</text>
	<text transform="matrix(1 0 0 1 145.9822 320.0992)" class="st4 st6">Lorem Ipsum cit dolor amet</text>
	<text transform="matrix(1 0 0 1 24.7475 421.7342)" class="st7 st8">Lorem Ipsum</text>
	<text transform="matrix(1 0 0 1 24.7475 426.3144)" class="st7 st8">Lorem Ipsum</text>
	<text transform="matrix(1 0 0 1 24.7475 430.8945)" class="st7 st8">Lorem Ipsum</text>
	<text transform="matrix(1 0 0 1 24.7475 435.4747)" class="st7 st8">Lorem Ipsum</text>
	<text transform="matrix(1 0 0 1 105.4708 421.7342)" class="st7 st8">Lorem Ipsum</text>
	<text transform="matrix(1 0 0 1 105.4708 426.3144)" class="st7 st8">Lorem Ipsum</text>
	<text transform="matrix(1 0 0 1 105.4708 430.8945)" class="st7 st8">Lorem Ipsum</text>
	<text transform="matrix(1 0 0 1 105.4708 435.4747)" class="st7 st8">Lorem Ipsum</text>
	<text transform="matrix(1 0 0 1 105.4708 440.3165)" class="st7 st8">Lorem Ipsum</text>
	<text transform="matrix(1 0 0 1 186.1941 421.7342)" class="st7 st8">Lorem Ipsum</text>
	<text transform="matrix(1 0 0 1 186.1941 426.3144)" class="st7 st8">Lorem Ipsum</text>
	<text transform="matrix(1 0 0 1 186.1941 430.8945)" class="st7 st8">Lorem Ipsum</text>
	<text transform="matrix(1 0 0 1 266.9174 461.7342)" class="st7 st8">Lorem Ipsum</text>
	<text transform="matrix(1 0 0 1 266.9174 466.3144)" class="st7 st8">Lorem Ipsum</text>
	<text transform="matrix(1 0 0 1 266.9174 470.8945)" class="st7 st8">Lorem Ipsum</text>
	<text transform="matrix(1 0 0 1 266.9174 475.4747)" class="st7 st8">Lorem Ipsum</text>
	<text transform="matrix(1 0 0 1 105.1797 408.2338)" class="st4 st5">Lorem Ipsum</text>
	<text transform="matrix(1 0 0 1 185.6115 408.2338)" class="st4 st5">Lorem Ipsum</text>
	<text transform="matrix(1 0 0 1 266.0435 448.2338)" class="st4 st5">Lorem Ipsum</text>
</g>
<g id="site1">
	<rect x="247.57" y="76.08" class="st0" width="369.86" height="535.44"/>
	<rect x="494.8" y="586.1" class="st1" width="32.88" height="9.95"/>
	<rect x="530.31" y="586.1" class="st1" width="32.88" height="9.95"/>
	<rect x="565.82" y="586.1" class="st1" width="32.88" height="9.95"/>
	<rect x="247.6" y="76.2" class="st2" width="369.82" height="17.87"/>
	<rect x="247.62" y="604.9" class="st2" width="369.82" height="6.59"/>
	<rect x="280.26" y="82.19" class="st3" width="304.49" height="5.9"/>
	<g>
		<rect x="356.36" y="247.94" class="st1" width="72.5" height="66"/>
		<line class="st1" x1="356.4" y1="313.73" x2="428.65" y2="248.17"/>
		<line class="st1" x1="356.1" y1="247.71" x2="428.95" y2="313.89"/>
	</g>
	<g>
		<rect x="442.65" y="247.94" class="st1" width="72.5" height="66"/>
		<line class="st1" x1="442.7" y1="313.73" x2="514.94" y2="248.17"/>
		<line class="st1" x1="442.39" y1="247.71" x2="515.24" y2="313.89"/>
	</g>
	<g>
		<rect x="527.61" y="247.94" class="st1" width="72.5" height="66"/>
		<line class="st1" x1="527.65" y1="313.73" x2="599.9" y2="248.17"/>
		<line class="st1" x1="527.35" y1="247.71" x2="600.2" y2="313.89"/>
	</g>
	<g>
		<rect x="270.73" y="247.94" class="st1" width="72.5" height="66"/>
		<line class="st1" x1="270.78" y1="313.73" x2="343.02" y2="248.17"/>
		<line class="st1" x1="270.47" y1="247.71" x2="343.32" y2="313.89"/>
	</g>
	<g>
		<rect x="270.73" y="359.66" class="st1" width="72.5" height="66"/>
		<line class="st1" x1="270.78" y1="425.45" x2="343.02" y2="359.88"/>
		<line class="st1" x1="270.47" y1="359.43" x2="343.32" y2="425.6"/>
	</g>
	<g>
		<rect x="271.63" y="461.11" class="st1" width="328.45" height="28.76"/>
		<line class="st1" x1="271.85" y1="489.78" x2="599.14" y2="461.21"/>
		<line class="st1" x1="270.47" y1="461.01" x2="600.51" y2="489.85"/>
	</g>
	<g>
		<rect x="355.02" y="359.66" class="st1" width="72.5" height="66"/>
		<line class="st1" x1="355.07" y1="425.45" x2="427.31" y2="359.88"/>
		<line class="st1" x1="354.76" y1="359.43" x2="427.61" y2="425.6"/>
	</g>
	<g>
		<rect x="247.69" y="118.29" class="st1" width="369.06" height="100.57"/>
		<line class="st1" x1="247.94" y1="218.54" x2="615.69" y2="118.63"/>
		<line class="st1" x1="247.59" y1="118.49" x2="617.24" y2="218.77"/>
	</g>
	<g>
		<rect x="268.32" y="97.94" class="st1" width="45.53" height="16.02"/>
		<line class="st1" x1="268.35" y1="113.9" x2="313.72" y2="97.99"/>
		<line class="st1" x1="268.16" y1="97.88" x2="313.91" y2="113.94"/>
	</g>
	<line class="st1" x1="247.36" y1="575.61" x2="617.48" y2="575.61"/>
	<line class="st1" x1="247.36" y1="503.61" x2="617.48" y2="503.61"/>
	<text transform="matrix(1 0 0 1 271.8179 522.769)" class="st4 st5">Lorem Ipsum</text>
	<text transform="matrix(1 0 0 1 271.8179 591.769)" class="st4 st5">Lorem Ipsum Cit Dolor Amet</text>
	<text transform="matrix(1 0 0 1 382.2791 235.4697)" class="st4 st6">Lorem Ipsum Cit Dolor Amet Ipsum</text>
	
		<rect x="497.12" y="100.94" transform="matrix(1 2.442359e-03 -2.442359e-03 1 0.2602 -1.254)" class="st1" width="32.88" height="9.95"/>
	<rect x="532.63" y="100.94" class="st1" width="32.88" height="9.95"/>
	
		<rect x="568.14" y="100.94" transform="matrix(1 2.442359e-03 -2.442359e-03 1 0.2604 -1.4274)" class="st1" width="32.88" height="9.95"/>
	<text transform="matrix(1 0 0 1 328.5408 107.3601)" class="st4 st6">Lorem Ipsum</text>
	<text transform="matrix(1 0 0 1 271.8179 536.2694)" class="st7 st8">Lorem Ipsum</text>
	<text transform="matrix(1 0 0 1 271.8179 540.8495)" class="st7 st8">Lorem Ipsum</text>
	<text transform="matrix(1 0 0 1 271.8179 545.4297)" class="st7 st8">Lorem Ipsum</text>
	<text transform="matrix(1 0 0 1 271.8179 550.0099)" class="st7 st8">Lorem Ipsum</text>
	<text transform="matrix(1 0 0 1 352.5412 536.2694)" class="st7 st8">Lorem Ipsum</text>
	<text transform="matrix(1 0 0 1 352.5412 540.8495)" class="st7 st8">Lorem Ipsum</text>
	<text transform="matrix(1 0 0 1 352.5412 545.4297)" class="st7 st8">Lorem Ipsum</text>
	<text transform="matrix(1 0 0 1 352.5412 550.0099)" class="st7 st8">Lorem Ipsum</text>
	<text transform="matrix(1 0 0 1 352.5412 554.8517)" class="st7 st8">Lorem Ipsum</text>
	<text transform="matrix(1 0 0 1 442.3938 323.0547)" class="st7 st9">Lorem Ipsum</text>
	<text transform="matrix(1 0 0 1 442.3938 327.9641)" class="st7 st9">Lorem Ipsum</text>
	<text transform="matrix(1 0 0 1 442.3938 332.8735)" class="st7 st9">Lorem Ipsum</text>
	<text transform="matrix(1 0 0 1 442.3938 337.7829)" class="st7 st9">Lorem Ipsum</text>
	<text transform="matrix(1 0 0 1 442.3938 342.6923)" class="st7 st9">Lorem Ipsum</text>
	<text transform="matrix(1 0 0 1 442.3938 347.6022)" class="st7 st9">Lorem Ipsum</text>
	<text transform="matrix(1 0 0 1 442.3938 352.511)" class="st7 st9">Lorem Ipsum</text>
	<text transform="matrix(1 0 0 1 527.111 323.0547)" class="st7 st9">Lorem Ipsum</text>
	<text transform="matrix(1 0 0 1 527.111 327.9641)" class="st7 st9">Lorem Ipsum</text>
	<text transform="matrix(1 0 0 1 527.111 332.8735)" class="st7 st9">Lorem Ipsum</text>
	<text transform="matrix(1 0 0 1 527.111 337.7829)" class="st7 st9">Lorem Ipsum</text>
	<text transform="matrix(1 0 0 1 270.6112 435.1625)" class="st7 st9">Lorem Ipsum</text>
	<text transform="matrix(1 0 0 1 270.6112 440.0719)" class="st7 st9">Lorem Ipsum</text>
	<text transform="matrix(1 0 0 1 355.0468 435.1625)" class="st7 st9">Lorem Ipsum</text>
	<text transform="matrix(1 0 0 1 355.0468 440.0719)" class="st7 st9">Lorem Ipsum</text>
	<text transform="matrix(1 0 0 1 355.0468 444.9814)" class="st7 st9">Lorem Ipsum</text>
	<text transform="matrix(1 0 0 1 356.3276 323.0547)" class="st7 st9">Lorem Ipsum</text>
	<text transform="matrix(1 0 0 1 356.3276 327.9641)" class="st7 st9">Lorem Ipsum</text>
	<text transform="matrix(1 0 0 1 356.3276 332.8735)" class="st7 st9">Lorem Ipsum</text>
	<text transform="matrix(1 0 0 1 270.1265 323.0547)" class="st7 st9">Lorem Ipsum</text>
	<text transform="matrix(1 0 0 1 270.1265 327.9641)" class="st7 st9">Lorem Ipsum</text>
	<text transform="matrix(1 0 0 1 433.2645 536.2694)" class="st7 st8">Lorem Ipsum</text>
	<text transform="matrix(1 0 0 1 433.2645 540.8495)" class="st7 st8">Lorem Ipsum</text>
	<text transform="matrix(1 0 0 1 433.2645 545.4297)" class="st7 st8">Lorem Ipsum</text>
	<text transform="matrix(1 0 0 1 513.9877 536.2694)" class="st7 st8">Lorem Ipsum</text>
	<text transform="matrix(1 0 0 1 513.9877 540.8495)" class="st7 st8">Lorem Ipsum</text>
	<text transform="matrix(1 0 0 1 513.9877 545.4297)" class="st7 st8">Lorem Ipsum</text>
	<text transform="matrix(1 0 0 1 513.9877 550.0099)" class="st7 st8">Lorem Ipsum</text>
	<text transform="matrix(1 0 0 1 352.2501 522.769)" class="st4 st5">Lorem Ipsum</text>
	<text transform="matrix(1 0 0 1 432.6818 522.769)" class="st4 st5">Lorem Ipsum</text>
	<text transform="matrix(1 0 0 1 513.114 522.769)" class="st4 st5">Lorem Ipsum</text>
</g>
<g id="site2">
	<rect x="798.05" y="36.84" class="st0" width="369.86" height="574.6"/>
	<rect x="1047.17" y="585.86" class="st1" width="32.88" height="9.95"/>
	<rect x="1082.68" y="585.86" class="st1" width="32.88" height="9.95"/>
	<rect x="1118.19" y="585.86" class="st1" width="32.88" height="9.95"/>
	
		<rect x="1045.28" y="61.43" transform="matrix(1 2.442359e-03 -2.442359e-03 1 0.1654 -2.5929)" class="st1" width="32.88" height="9.95"/>
	<rect x="1080.79" y="61.52" class="st1" width="32.88" height="9.95"/>
	
		<rect x="1116.3" y="61.6" transform="matrix(1 2.442359e-03 -2.442359e-03 1 0.166 -2.7663)" class="st1" width="32.88" height="9.95"/>
	<rect x="798.07" y="36.97" class="st10" width="369.82" height="17.87"/>
	<rect x="798.06" y="604.66" class="st2" width="369.82" height="6.59"/>
	<rect x="830.74" y="42.95" class="st3" width="304.49" height="5.9"/>
	<g>
		<rect x="816.8" y="59.52" class="st1" width="45.53" height="16.02"/>
		<line class="st1" x1="816.83" y1="75.49" x2="862.2" y2="59.58"/>
		<line class="st1" x1="816.64" y1="59.47" x2="862.39" y2="75.53"/>
	</g>
	<g>
		<rect x="817.16" y="109.24" class="st1" width="197.45" height="87.93"/>
		<line class="st1" x1="817.29" y1="196.9" x2="1014.04" y2="109.55"/>
		<line class="st1" x1="817.05" y1="109.22" x2="1014.87" y2="197.1"/>
	</g>
	<g>
		<rect x="817.16" y="316.42" class="st1" width="197.45" height="124.87"/>
	</g>
	<g>
		<rect x="959.92" y="419.72" class="st1" width="43.62" height="11.87"/>
	</g>
	<g>
		<rect x="826.95" y="367.09" class="st1" width="176.58" height="43.86"/>
	</g>
	<g>
		<rect x="826.95" y="337.08" class="st1" width="81.72" height="6"/>
	</g>
	<g>
		<rect x="921.13" y="337.08" class="st1" width="81.72" height="6"/>
	</g>
	<g>
		<rect x="817.65" y="464.27" class="st1" width="334.75" height="25.9"/>
		<line class="st1" x1="817.87" y1="490.09" x2="1151.43" y2="464.36"/>
		<line class="st1" x1="816.47" y1="464.18" x2="1152.83" y2="490.15"/>
	</g>
	<g>
		<rect x="1045.14" y="109.11" class="st1" width="103.72" height="50.5"/>
		<line class="st1" x1="1045.21" y1="159.46" x2="1148.56" y2="109.29"/>
		<line class="st1" x1="1044.78" y1="108.94" x2="1149" y2="159.57"/>
	</g>
	<g>
		<rect x="1045.14" y="184.8" class="st1" width="103.72" height="102.03"/>
		<line class="st1" x1="1045.21" y1="286.51" x2="1148.56" y2="185.15"/>
		<line class="st1" x1="1044.78" y1="184.45" x2="1149" y2="286.74"/>
	</g>
	<line class="st1" x1="797.84" y1="575.37" x2="1167.96" y2="575.37"/>
	<line class="st1" x1="797.84" y1="501.83" x2="1167.96" y2="501.83"/>
	<line class="st1" x1="797.84" y1="454.51" x2="1167.96" y2="454.51"/>
	<text transform="matrix(1 0 0 1 818.4603 591.769)" class="st4 st5">Lorem Ipsum Cit Dolor Amet</text>
	<text transform="matrix(1 0 0 1 1045.7207 301.2655)" class="st4 st6">Lorem Ipsum</text>
	<text transform="matrix(1 0 0 1 1045.7207 176.9845)" class="st4 st6">Lorem Ipsum Cit Ipsum</text>
	<text transform="matrix(1 0 0 1 1045.7207 100.6369)" class="st4 st6">Lorem Ipsum Cit Dolor Amet Ipsum</text>
	<text transform="matrix(1 0 0 1 816.2184 100.6367)" class="st4 st6">Lorem Ipsum Cit Dolor Amet Ipsum</text>
	<text transform="matrix(1 0 0 1 870.6993 70.7924)" class="st4 st6">Lorem Ipsum</text>
	<g>
		<g>
			<rect x="1043.27" y="387.02" class="st1" width="38.21" height="29.28"/>
			<line class="st1" x1="1043.29" y1="416.21" x2="1081.37" y2="387.12"/>
			<line class="st1" x1="1043.13" y1="386.92" x2="1081.53" y2="416.27"/>
		</g>
		<text transform="matrix(1 0 0 1 1092.5443 391.2097)" class="st4 st5">Lorem Ipsum</text>
	</g>
	<g>
		<g>
			<rect x="1043.27" y="349.39" class="st1" width="38.21" height="29.28"/>
			<line class="st1" x1="1043.29" y1="378.58" x2="1081.37" y2="349.49"/>
			<line class="st1" x1="1043.13" y1="349.29" x2="1081.53" y2="378.64"/>
		</g>
		<text transform="matrix(1 0 0 1 1092.5443 353.5803)" class="st4 st5">Lorem Ipsum</text>
	</g>
	<g>
		<g>
			<rect x="1043.27" y="311.76" class="st1" width="38.21" height="29.28"/>
			<line class="st1" x1="1043.29" y1="340.95" x2="1081.37" y2="311.86"/>
			<line class="st1" x1="1043.13" y1="311.66" x2="1081.53" y2="341.01"/>
		</g>
		<text transform="matrix(1 0 0 1 1092.5443 315.9513)" class="st4 st5">Lorem Ipsum</text>
	</g>
	<text transform="matrix(1 0 0 1 818.4603 522.769)" class="st4 st5">Lorem Ipsum</text>
	<text transform="matrix(1 0 0 1 818.4603 536.2694)" class="st7 st8">Lorem Ipsum</text>
	<text transform="matrix(1 0 0 1 818.4603 540.8495)" class="st7 st8">Lorem Ipsum</text>
	<text transform="matrix(1 0 0 1 818.4603 545.4297)" class="st7 st8">Lorem Ipsum</text>
	<text transform="matrix(1 0 0 1 818.4603 550.0099)" class="st7 st8">Lorem Ipsum</text>
	<text transform="matrix(1 0 0 1 899.1835 536.2694)" class="st7 st8">Lorem Ipsum</text>
	<text transform="matrix(1 0 0 1 899.1835 540.8495)" class="st7 st8">Lorem Ipsum</text>
	<text transform="matrix(1 0 0 1 899.1835 545.4297)" class="st7 st8">Lorem Ipsum</text>
	<text transform="matrix(1 0 0 1 899.1835 550.0099)" class="st7 st8">Lorem Ipsum</text>
	<text transform="matrix(1 0 0 1 899.1835 554.8517)" class="st7 st8">Lorem Ipsum</text>
	<text transform="matrix(1 0 0 1 979.9068 536.2694)" class="st7 st8">Lorem Ipsum</text>
	<text transform="matrix(1 0 0 1 979.9068 540.8495)" class="st7 st8">Lorem Ipsum</text>
	<text transform="matrix(1 0 0 1 979.9068 545.4297)" class="st7 st8">Lorem Ipsum</text>
	<text transform="matrix(1 0 0 1 1060.63 536.2694)" class="st7 st8">Lorem Ipsum</text>
	<text transform="matrix(1 0 0 1 1060.63 540.8495)" class="st7 st8">Lorem Ipsum</text>
	<text transform="matrix(1 0 0 1 1060.63 545.4297)" class="st7 st8">Lorem Ipsum</text>
	<text transform="matrix(1 0 0 1 1060.63 550.0099)" class="st7 st8">Lorem Ipsum</text>
	<text transform="matrix(1 0 0 1 898.8925 522.769)" class="st4 st5">Lorem Ipsum</text>
	<text transform="matrix(1 0 0 1 979.3242 522.769)" class="st4 st5">Lorem Ipsum</text>
	<text transform="matrix(1 0 0 1 1059.7562 522.769)" class="st4 st5">Lorem Ipsum</text>
	<text transform="matrix(1 0 0 1 826.7992 331.2953)" class="st4 st5">Lorem Ipsum</text>
	<text transform="matrix(1 0 0 1 826.7992 361.4605)" class="st4 st5">Lorem Ipsum</text>
	<text transform="matrix(1 0 0 1 921.0189 331.2953)" class="st4 st5">Lorem Ipsum</text>
	<rect x="818" y="206.48" class="st11" width="197.39" height="98.18"/>
	<text transform="matrix(1 0 0 1 817.9957 210.062)"><tspan x="0" y="0" class="st4 st5">Lorem ipsum dolor sit amet, consectetur adipiscing elit, sed do eiusmod tempor </tspan><tspan x="0" y="6" class="st4 st5">incididunt ut labore et dolore magna aliqua. Ut enim ad minim veniam, quis </tspan><tspan x="0" y="12" class="st4 st5">nostrud exercitation ullamco laboris nisi ut aliquip ex ea commodo consequat. </tspan><tspan x="0" y="18" class="st4 st5">Duis aute irure dolor in reprehenderit in voluptate velit esse cillum dolore eu fugiat </tspan><tspan x="0" y="24" class="st4 st5">nulla pariatur. Excepteur sint occaecat cupidatat non proident, sunt in culpa qui </tspan><tspan x="0" y="30" class="st4 st5">officia deserunt mollit anim id est laborum.</tspan><tspan x="0" y="42" class="st7 st5">Lorem ipsum dolor sit amet, consectetur adipiscing elit, sed do eiusmod tempor </tspan><tspan x="0" y="48" class="st7 st5">incididunt ut labore et dolore magna aliqua. Ut enim ad minim veniam, quis nostrud </tspan><tspan x="0" y="54" class="st7 st5">exercitation ullamco laboris nisi ut aliquip ex ea commodo consequat. Duis aute irure </tspan><tspan x="0" y="60" class="st7 st5">dolor in reprehenderit in voluptate velit esse cillum dolore eu fugiat nulla pariatur. </tspan><tspan x="0" y="66" class="st7 st5">Excepteur sint occaecat cupidatat non proident, sunt in culpa qui officia deserunt mollit </tspan><tspan x="0" y="72" class="st7 st5">anim id est laborum.</tspan><tspan x="0" y="84" class="st7 st5">Lorem ipsum dolor sit amet, consectetur adipiscing elit, sed do eiusmod tempor </tspan><tspan x="0" y="90" class="st7 st5">incididunt ut labore et dolore magna aliqua.</tspan></text>
	<text transform="matrix(1 0 0 1 830.8457 264.1405)" class="st4 st6">Lorem Ipsum</text>
	<text transform="matrix(1 0 0 1 830.8457 139.8595)" class="st4 st6">Lorem Ipsum Cit Ipsum</text>
	<text transform="matrix(1 0 0 1 830.8457 63.5119)" class="st4 st6">Lorem Ipsum Cit Dolor Amet Ipsum</text>
</g>
</svg>
