<?xml version="1.0" encoding="utf-8"?>
<!-- Generator: Adobe Illustrator 24.1.3, SVG Export Plug-In . SVG Version: 6.00 Build 0)  -->
<svg version="1.1" xmlns="http://www.w3.org/2000/svg" xmlns:xlink="http://www.w3.org/1999/xlink" x="0px" y="0px"
	 viewBox="0 0 1168.97 615.76" style="enable-background:new 0 0 1168.97 615.76;" xml:space="preserve">
<style type="text/css">
	.st0{fill:#FFFFFF;stroke:#c7c7c7;stroke-linejoin:round;stroke-miterlimit:10;}
	.st1{fill:none;stroke:#c7c7c7;stroke-linejoin:round;stroke-miterlimit:10;}
	.st2{fill:#0086FF;stroke:#c7c7c7;stroke-linejoin:round;stroke-miterlimit:10;}
	.st3{fill:#49A9FF;stroke:#95CCEF;stroke-linejoin:round;stroke-miterlimit:10;}
	.st4{fill:#c7c7c7;}
	.st5{font-family:'Arial-BoldMT';}
	.st6{font-size:5px;}
	.st7{fill:none;stroke:#c7c7c7;stroke-width:1;stroke-linejoin:round;stroke-miterlimit:10;}
	.st8{font-size:6px;}
	.st9{font-family:'ArialMT';}
	.st10{font-size:4px;}
	.st11{font-size:3px;}
	.st12{fill:none;}
</style>
<g id="site3_1_">
	<rect x="585.6" y="3" class="st0" width="369.86" height="596.87"/>
	<rect x="832.84" y="513.02" class="st1" width="32.88" height="9.95"/>
	<rect x="868.34" y="513.02" class="st1" width="32.88" height="9.95"/>
	<rect x="903.85" y="513.02" class="st1" width="32.88" height="9.95"/>
	<rect x="585.63" y="3.13" class="st2" width="369.82" height="17.87"/>
	<rect x="585.65" y="593.83" class="st0" width="369.82" height="6.59"/>
	<rect x="618.29" y="9.11" class="st3" width="304.49" height="5.9"/>
	<g>
		<rect x="865.64" y="174.86" class="st1" width="72.5" height="66"/>
		<line class="st1" x1="865.69" y1="240.66" x2="937.93" y2="175.09"/>
		<line class="st1" x1="865.38" y1="174.64" x2="938.23" y2="240.81"/>
	</g>
	<g>
		<rect x="609.66" y="452.38" class="st1" width="328.45" height="28.76"/>
	</g>
	<g>
		<rect x="585.72" y="45.21" class="st1" width="369.06" height="100.57"/>
	</g>
	<g>
		<rect x="606.35" y="24.86" class="st1" width="45.53" height="16.02"/>
	</g>
	<line class="st1" x1="585.4" y1="564.53" x2="955.52" y2="564.53"/>
	<line class="st1" x1="585.4" y1="493.4" x2="955.52" y2="493.4"/>
	<line class="st1" x1="585.4" y1="436.39" x2="955.52" y2="436.39"/>
	<text transform="matrix(1 0 0 1 609.8499 512.563)" class="st4 st5 st6">Lorem Ipsum</text>
	<text transform="matrix(1 0 0 1 609.8499 580.6907)" class="st4 st5 st6">Lorem Ipsum Cit Dolor Amet</text>
	
		<rect x="846.63" y="16.4" transform="matrix(2.442352e-03 -1 1 2.442352e-03 816.6874 884.355)" class="st7" width="9.95" height="32.88"/>
	<rect x="870.66" y="27.86" class="st1" width="32.88" height="9.95"/>
	
		<rect x="917.64" y="16.4" transform="matrix(2.442352e-03 -1 1 2.442352e-03 887.5242 955.365)" class="st7" width="9.95" height="32.88"/>
	<text transform="matrix(1 0 0 1 663.5728 34.2817)" class="st4 st5 st8">Lorem Ipsum</text>
	<text transform="matrix(1 0 0 1 609.8499 526.0633)" class="st4 st9 st10">Lorem Ipsum</text>
	<text transform="matrix(1 0 0 1 609.8499 530.6435)" class="st4 st9 st10">Lorem Ipsum</text>
	<text transform="matrix(1 0 0 1 609.8499 535.2237)" class="st4 st9 st10">Lorem Ipsum</text>
	<text transform="matrix(1 0 0 1 609.8499 539.8038)" class="st4 st9 st10">Lorem Ipsum</text>
	<text transform="matrix(1 0 0 1 690.5732 526.0633)" class="st4 st9 st10">Lorem Ipsum</text>
	<text transform="matrix(1 0 0 1 690.5732 530.6435)" class="st4 st9 st10">Lorem Ipsum</text>
	<text transform="matrix(1 0 0 1 690.5732 535.2237)" class="st4 st9 st10">Lorem Ipsum</text>
	<text transform="matrix(1 0 0 1 690.5732 539.8038)" class="st4 st9 st10">Lorem Ipsum</text>
	<text transform="matrix(1 0 0 1 690.5732 544.6456)" class="st4 st9 st10">Lorem Ipsum</text>
	<text transform="matrix(1 0 0 1 865.1431 249.9763)" class="st4 st9 st11">Lorem Ipsum</text>
	<text transform="matrix(1 0 0 1 865.1431 254.8857)" class="st4 st9 st11">Lorem Ipsum</text>
	<text transform="matrix(1 0 0 1 865.1431 259.7951)" class="st4 st9 st11">Lorem Ipsum</text>
	<text transform="matrix(1 0 0 1 865.1431 264.7045)" class="st4 st9 st11">Lorem Ipsum</text>
	<text transform="matrix(1 0 0 1 771.2964 526.0633)" class="st4 st9 st10">Lorem Ipsum</text>
	<text transform="matrix(1 0 0 1 771.2964 530.6435)" class="st4 st9 st10">Lorem Ipsum</text>
	<text transform="matrix(1 0 0 1 771.2964 535.2237)" class="st4 st9 st10">Lorem Ipsum</text>
	<text transform="matrix(1 0 0 1 852.0198 526.0633)" class="st4 st9 st10">Lorem Ipsum</text>
	<text transform="matrix(1 0 0 1 852.0198 530.6435)" class="st4 st9 st10">Lorem Ipsum</text>
	<text transform="matrix(1 0 0 1 852.0198 535.2237)" class="st4 st9 st10">Lorem Ipsum</text>
	<text transform="matrix(1 0 0 1 852.0198 539.8038)" class="st4 st9 st10">Lorem Ipsum</text>
	<text transform="matrix(1 0 0 1 690.2821 512.563)" class="st4 st5 st6">Lorem Ipsum</text>
	<text transform="matrix(1 0 0 1 770.7138 512.563)" class="st4 st5 st6">Lorem Ipsum</text>
	<text transform="matrix(1 0 0 1 851.1459 512.563)" class="st4 st5 st6">Lorem Ipsum</text>
	<g>
		<g>
			<rect x="693.83" y="164.66" class="st1" width="72.5" height="66"/>
		</g>
		<rect x="693.82" y="230.65" class="st1" width="72.5" height="13.34"/>
		<text transform="matrix(1 0 0 1 713.6157 238.0414)" class="st4 st5 st6">Lorem ipsum</text>
	</g>
	<g>
		<g>
			<rect x="693.83" y="251.55" class="st1" width="72.5" height="66"/>
		</g>
		<rect x="693.82" y="317.54" class="st1" width="72.5" height="13.34"/>
		<text transform="matrix(1 0 0 1 713.6157 324.9348)" class="st4 st5 st6">Lorem ipsum</text>
	</g>
	<g>
		<g>
			<rect x="693.83" y="338.45" class="st1" width="72.5" height="66"/>
		</g>
		<rect x="693.82" y="404.44" class="st1" width="72.5" height="13.34"/>
		<text transform="matrix(1 0 0 1 713.6157 411.8281)" class="st4 st5 st6">Lorem ipsum</text>
	</g>
	<g>
		<g>
			<rect x="607.51" y="164.66" class="st1" width="72.5" height="66"/>
		</g>
		<rect x="607.5" y="230.65" class="st1" width="72.5" height="13.34"/>
		<text transform="matrix(1 0 0 1 627.2997 238.0414)" class="st4 st5 st6">Lorem ipsum</text>
	</g>
	<g>
		<g>
			<rect x="607.51" y="251.55" class="st1" width="72.5" height="66"/>
		</g>
		<rect x="607.5" y="317.54" class="st1" width="72.5" height="13.34"/>
		<text transform="matrix(1 0 0 1 627.2997 324.9348)" class="st4 st5 st6">Lorem ipsum</text>
	</g>
	<g>
		<g>
			<rect x="607.51" y="338.45" class="st1" width="72.5" height="66"/>
		</g>
		<rect x="607.5" y="404.44" class="st1" width="72.5" height="13.34"/>
		<text transform="matrix(1 0 0 1 627.2997 411.8281)" class="st4 st5 st6">Lorem ipsum</text>
	</g>
	<g>
		<g>
			<rect x="778.26" y="164.66" class="st1" width="72.5" height="66"/>
		</g>
		<rect x="778.25" y="230.65" class="st1" width="72.5" height="13.34"/>
		<text transform="matrix(1 0 0 1 798.0414 238.0414)" class="st4 st5 st6">Lorem ipsum</text>
	</g>
	<g>
		<g>
			<rect x="778.26" y="251.55" class="st1" width="72.5" height="66"/>
		</g>
		<rect x="778.25" y="317.54" class="st1" width="72.5" height="13.34"/>
		<text transform="matrix(1 0 0 1 798.0414 324.9348)" class="st4 st5 st6">Lorem ipsum</text>
	</g>
	<g>
		<g>
			<rect x="778.26" y="338.45" class="st1" width="72.5" height="66"/>
		</g>
		<rect x="778.25" y="404.44" class="st1" width="72.5" height="13.34"/>
		<text transform="matrix(1 0 0 1 798.0414 411.8281)" class="st4 st5 st6">Lorem ipsum</text>
	</g>
</g>
<g id="site4_1_">
	<rect x="0.5" y="4.04" class="st0" width="369.86" height="495.02"/>
	<rect x="247.73" y="514.06" class="st1" width="32.88" height="9.95"/>
	<rect x="283.24" y="514.06" class="st1" width="32.88" height="9.95"/>
	<rect x="318.75" y="514.06" class="st1" width="32.88" height="9.95"/>
	<rect x="0.53" y="4.17" class="st2" width="369.82" height="17.87"/>
	<rect x="0.55" y="492.87" class="st0" width="369.82" height="6.59"/>
	<rect x="33.19" y="10.15" class="st3" width="304.49" height="5.9"/>
	<g>
		<rect x="24.56" y="349.08" class="st1" width="328.45" height="28.76"/>
	</g>
	<g>
		<rect x="28.5" y="229.77" class="st1" width="101.01" height="99.04"/>
	</g>
	<g>
		<rect x="140.4" y="229.77" class="st1" width="101.01" height="99.04"/>
	</g>
	<g>
		<rect x="252.3" y="229.77" class="st1" width="101.01" height="99.04"/>
		<line class="st1" x1="252.37" y1="328.49" x2="353.02" y2="230.11"/>
		<line class="st1" x1="251.94" y1="229.42" x2="353.44" y2="328.72"/>
	</g>
	<g>
		<rect x="21.25" y="25.9" class="st1" width="45.53" height="16.02"/>
	</g>
	<line class="st1" x1="0.29" y1="463.57" x2="370.41" y2="463.57"/>
	<line class="st1" x1="0.29" y1="391.57" x2="370.41" y2="391.57"/>
	<text transform="matrix(1 0 0 1 24.7475 410.7339)" class="st4 st5 st6">Lorem Ipsum</text>
	<text transform="matrix(1 0 0 1 24.7475 479.7339)" class="st4 st5 st6">Lorem Ipsum Cit Dolor Amet</text>
	
		<rect x="261.52" y="17.44" transform="matrix(2.442352e-03 -1 1 2.442352e-03 231.9648 300.2824)" class="st7" width="9.95" height="32.88"/>
	<rect x="285.56" y="28.9" class="st1" width="32.88" height="9.95"/>
	
		<rect x="332.54" y="17.44" transform="matrix(2.442352e-03 -1 1 2.442352e-03 302.8116 371.3025)" class="st7" width="9.95" height="32.88"/>
	<text transform="matrix(1 0 0 1 78.4705 35.325)" class="st4 st5 st8">Lorem Ipsum</text>
	<text transform="matrix(1 0 0 1 35.3325 322.5993)" class="st4 st5 st8">Lorem Ipsum cit dolor amet</text>
	<text transform="matrix(1 0 0 1 145.9822 322.5993)" class="st4 st5 st8">Lorem Ipsum cit dolor amet</text>
	<text transform="matrix(1 0 0 1 24.7475 424.2343)" class="st4 st9 st10">Lorem Ipsum</text>
	<text transform="matrix(1 0 0 1 24.7475 428.8145)" class="st4 st9 st10">Lorem Ipsum</text>
	<text transform="matrix(1 0 0 1 24.7475 433.3946)" class="st4 st9 st10">Lorem Ipsum</text>
	<text transform="matrix(1 0 0 1 24.7475 437.9748)" class="st4 st9 st10">Lorem Ipsum</text>
	<text transform="matrix(1 0 0 1 105.4708 424.2343)" class="st4 st9 st10">Lorem Ipsum</text>
	<text transform="matrix(1 0 0 1 105.4708 428.8145)" class="st4 st9 st10">Lorem Ipsum</text>
	<text transform="matrix(1 0 0 1 105.4708 433.3946)" class="st4 st9 st10">Lorem Ipsum</text>
	<text transform="matrix(1 0 0 1 105.4708 437.9748)" class="st4 st9 st10">Lorem Ipsum</text>
	<text transform="matrix(1 0 0 1 105.4708 442.8166)" class="st4 st9 st10">Lorem Ipsum</text>
	<text transform="matrix(1 0 0 1 186.1941 424.2343)" class="st4 st9 st10">Lorem Ipsum</text>
	<text transform="matrix(1 0 0 1 186.1941 428.8145)" class="st4 st9 st10">Lorem Ipsum</text>
	<text transform="matrix(1 0 0 1 186.1941 433.3946)" class="st4 st9 st10">Lorem Ipsum</text>
	<text transform="matrix(1 0 0 1 266.9174 464.2343)" class="st4 st9 st10">Lorem Ipsum</text>
	<text transform="matrix(1 0 0 1 266.9174 468.8145)" class="st4 st9 st10">Lorem Ipsum</text>
	<text transform="matrix(1 0 0 1 266.9174 473.3946)" class="st4 st9 st10">Lorem Ipsum</text>
	<text transform="matrix(1 0 0 1 266.9174 477.9748)" class="st4 st9 st10">Lorem Ipsum</text>
	<text transform="matrix(1 0 0 1 105.1797 410.7339)" class="st4 st5 st6">Lorem Ipsum</text>
	<text transform="matrix(1 0 0 1 185.6115 410.7339)" class="st4 st5 st6">Lorem Ipsum</text>
	<text transform="matrix(1 0 0 1 266.0435 450.7339)" class="st4 st5 st6">Lorem Ipsum</text>
	<line class="st1" x1="0.37" y1="217.92" x2="370.49" y2="217.92"/>
	<line class="st1" x1="0.37" y1="45.8" x2="370.49" y2="45.8"/>
</g>
<g id="site1_1_">
	<rect x="247.57" y="78.58" class="st0" width="369.86" height="535.44"/>
	<rect x="494.8" y="588.6" class="st1" width="32.88" height="9.95"/>
	<rect x="530.31" y="588.6" class="st1" width="32.88" height="9.95"/>
	<rect x="565.82" y="588.6" class="st1" width="32.88" height="9.95"/>
	<rect x="247.6" y="78.7" class="st2" width="369.82" height="17.87"/>
	<rect x="247.62" y="607.4" class="st0" width="369.82" height="6.59"/>
	<rect x="280.26" y="84.69" class="st3" width="304.49" height="5.9"/>
	<g>
		<rect x="356.36" y="250.44" class="st1" width="72.5" height="66"/>
	</g>
	<g>
		<rect x="442.65" y="250.44" class="st1" width="72.5" height="66"/>
	</g>
	<g>
		<rect x="527.61" y="250.44" class="st1" width="72.5" height="66"/>
	</g>
	<g>
		<rect x="270.73" y="250.44" class="st1" width="72.5" height="66"/>
	</g>
	<g>
		<rect x="270.73" y="362.16" class="st1" width="72.5" height="66"/>
	</g>
	<g>
		<rect x="271.63" y="463.61" class="st1" width="328.45" height="28.76"/>
	</g>
	<g>
		<rect x="355.02" y="362.16" class="st1" width="72.5" height="66"/>
	</g>
	<g>
		<rect x="268.32" y="100.44" class="st1" width="45.53" height="16.02"/>
	</g>
	<line class="st1" x1="247.36" y1="578.11" x2="617.48" y2="578.11"/>
	<line class="st1" x1="247.36" y1="506.11" x2="617.48" y2="506.11"/>
	<line class="st1" x1="247.36" y1="121.13" x2="617.48" y2="121.13"/>
	<line class="st1" x1="247.36" y1="221.8" x2="617.48" y2="221.8"/>
	<text transform="matrix(1 0 0 1 271.8179 525.2691)" class="st4 st5 st6">Lorem Ipsum</text>
	<text transform="matrix(1 0 0 1 271.8179 594.2691)" class="st4 st5 st6">Lorem Ipsum Cit Dolor Amet</text>
	<text transform="matrix(1 0 0 1 382.2791 237.9698)" class="st4 st5 st8">Lorem Ipsum Cit Dolor Amet Ipsum</text>
	
		<rect x="508.59" y="91.98" transform="matrix(2.442352e-03 -1 1 2.442352e-03 403.8922 621.7106)" class="st7" width="9.95" height="32.88"/>
	<rect x="532.63" y="103.44" class="st1" width="32.88" height="9.95"/>
	
		<rect x="579.61" y="91.98" transform="matrix(2.442352e-03 -1 1 2.442352e-03 474.7389 692.7307)" class="st7" width="9.95" height="32.88"/>
	<text transform="matrix(1 0 0 1 325.5408 109.8602)" class="st4 st5 st8">Lorem Ipsum</text>
	<text transform="matrix(1 0 0 1 271.8179 538.7695)" class="st4 st9 st10">Lorem Ipsum</text>
	<text transform="matrix(1 0 0 1 271.8179 543.3496)" class="st4 st9 st10">Lorem Ipsum</text>
	<text transform="matrix(1 0 0 1 271.8179 547.9298)" class="st4 st9 st10">Lorem Ipsum</text>
	<text transform="matrix(1 0 0 1 271.8179 552.51)" class="st4 st9 st10">Lorem Ipsum</text>
	<text transform="matrix(1 0 0 1 352.5412 538.7695)" class="st4 st9 st10">Lorem Ipsum</text>
	<text transform="matrix(1 0 0 1 352.5412 543.3496)" class="st4 st9 st10">Lorem Ipsum</text>
	<text transform="matrix(1 0 0 1 352.5412 547.9298)" class="st4 st9 st10">Lorem Ipsum</text>
	<text transform="matrix(1 0 0 1 352.5412 552.51)" class="st4 st9 st10">Lorem Ipsum</text>
	<text transform="matrix(1 0 0 1 352.5412 557.3518)" class="st4 st9 st10">Lorem Ipsum</text>
	<text transform="matrix(1 0 0 1 442.3938 325.5548)" class="st4 st9 st11">Lorem Ipsum</text>
	<text transform="matrix(1 0 0 1 442.3938 330.4642)" class="st4 st9 st11">Lorem Ipsum</text>
	<text transform="matrix(1 0 0 1 442.3938 335.3736)" class="st4 st9 st11">Lorem Ipsum</text>
	<text transform="matrix(1 0 0 1 442.3938 340.283)" class="st4 st9 st11">Lorem Ipsum</text>
	<text transform="matrix(1 0 0 1 442.3938 345.1924)" class="st4 st9 st11">Lorem Ipsum</text>
	<text transform="matrix(1 0 0 1 442.3938 350.1023)" class="st4 st9 st11">Lorem Ipsum</text>
	<text transform="matrix(1 0 0 1 442.3938 355.0111)" class="st4 st9 st11">Lorem Ipsum</text>
	<text transform="matrix(1 0 0 1 527.111 325.5548)" class="st4 st9 st11">Lorem Ipsum</text>
	<text transform="matrix(1 0 0 1 527.111 330.4642)" class="st4 st9 st11">Lorem Ipsum</text>
	<text transform="matrix(1 0 0 1 527.111 335.3736)" class="st4 st9 st11">Lorem Ipsum</text>
	<text transform="matrix(1 0 0 1 527.111 340.283)" class="st4 st9 st11">Lorem Ipsum</text>
	<text transform="matrix(1 0 0 1 270.6112 437.6626)" class="st4 st9 st11">Lorem Ipsum</text>
	<text transform="matrix(1 0 0 1 270.6112 442.572)" class="st4 st9 st11">Lorem Ipsum</text>
	<text transform="matrix(1 0 0 1 355.0468 437.6626)" class="st4 st9 st11">Lorem Ipsum</text>
	<text transform="matrix(1 0 0 1 355.0468 442.572)" class="st4 st9 st11">Lorem Ipsum</text>
	<text transform="matrix(1 0 0 1 355.0468 447.4815)" class="st4 st9 st11">Lorem Ipsum</text>
	<text transform="matrix(1 0 0 1 356.3276 325.5548)" class="st4 st9 st11">Lorem Ipsum</text>
	<text transform="matrix(1 0 0 1 356.3276 330.4642)" class="st4 st9 st11">Lorem Ipsum</text>
	<text transform="matrix(1 0 0 1 356.3276 335.3736)" class="st4 st9 st11">Lorem Ipsum</text>
	<text transform="matrix(1 0 0 1 270.1265 325.5548)" class="st4 st9 st11">Lorem Ipsum</text>
	<text transform="matrix(1 0 0 1 270.1265 330.4642)" class="st4 st9 st11">Lorem Ipsum</text>
	<text transform="matrix(1 0 0 1 433.2645 538.7695)" class="st4 st9 st10">Lorem Ipsum</text>
	<text transform="matrix(1 0 0 1 433.2645 543.3496)" class="st4 st9 st10">Lorem Ipsum</text>
	<text transform="matrix(1 0 0 1 433.2645 547.9298)" class="st4 st9 st10">Lorem Ipsum</text>
	<text transform="matrix(1 0 0 1 513.9877 538.7695)" class="st4 st9 st10">Lorem Ipsum</text>
	<text transform="matrix(1 0 0 1 513.9877 543.3496)" class="st4 st9 st10">Lorem Ipsum</text>
	<text transform="matrix(1 0 0 1 513.9877 547.9298)" class="st4 st9 st10">Lorem Ipsum</text>
	<text transform="matrix(1 0 0 1 513.9877 552.51)" class="st4 st9 st10">Lorem Ipsum</text>
	<text transform="matrix(1 0 0 1 352.2501 525.2691)" class="st4 st5 st6">Lorem Ipsum</text>
	<text transform="matrix(1 0 0 1 432.6818 525.2691)" class="st4 st5 st6">Lorem Ipsum</text>
	<text transform="matrix(1 0 0 1 513.114 525.2691)" class="st4 st5 st6">Lorem Ipsum</text>
</g>
<g id="site2">
	<rect x="798.05" y="39.34" class="st0" width="369.86" height="574.6"/>
	<rect x="1047.17" y="588.36" class="st1" width="32.88" height="9.95"/>
	<rect x="1082.68" y="588.36" class="st1" width="32.88" height="9.95"/>
	<rect x="1118.19" y="588.36" class="st1" width="32.88" height="9.95"/>
	
		<rect x="1056.75" y="52.47" transform="matrix(2.442352e-03 -1 1 2.442352e-03 990.225 1130.457)" class="st7" width="9.95" height="32.88"/>
	<rect x="1080.79" y="64.02" class="st1" width="32.88" height="9.95"/>
	
		<rect x="1127.77" y="52.64" transform="matrix(2.442352e-03 -1 1 2.442352e-03 1060.9017 1201.6467)" class="st7" width="9.95" height="32.88"/>
	<rect x="798.07" y="39.47" class="st2" width="369.82" height="17.87"/>
	<rect x="798.06" y="607.16" class="st0" width="369.82" height="6.59"/>
	<rect x="830.74" y="45.45" class="st3" width="304.49" height="5.9"/>
	<g>
		<rect x="816.8" y="62.02" class="st1" width="45.53" height="16.02"/>
	</g>
	<g>
		<rect x="817.16" y="111.74" class="st1" width="197.45" height="87.93"/>
	</g>
	<g>
		<rect x="817.16" y="318.92" class="st1" width="197.45" height="124.87"/>
	</g>
	<g>
		<rect x="959.92" y="422.22" class="st1" width="43.62" height="11.87"/>
	</g>
	<g>
		<rect x="826.95" y="369.59" class="st1" width="176.58" height="43.86"/>
	</g>
	<g>
		<rect x="826.95" y="339.58" class="st1" width="81.72" height="6"/>
	</g>
	<g>
		<rect x="921.13" y="339.58" class="st1" width="81.72" height="6"/>
	</g>
	<g>
		<rect x="817.65" y="466.77" class="st1" width="334.75" height="25.9"/>
	</g>
	<g>
		<rect x="1045.14" y="111.61" class="st1" width="103.72" height="50.5"/>
	</g>
	<g>
		<rect x="1045.14" y="187.3" class="st1" width="103.72" height="102.03"/>
	</g>
	<line class="st1" x1="797.84" y1="577.87" x2="1167.96" y2="577.87"/>
	<line class="st1" x1="797.84" y1="504.33" x2="1167.96" y2="504.33"/>
	<line class="st1" x1="797.84" y1="457.01" x2="1167.96" y2="457.01"/>
	<line class="st1" x1="797.84" y1="81.94" x2="1167.96" y2="81.94"/>
	<text transform="matrix(1 0 0 1 818.4603 594.2691)" class="st4 st5 st6">Lorem Ipsum Cit Dolor Amet</text>
	<text transform="matrix(1 0 0 1 1045.7207 303.7656)" class="st4 st5 st8">Lorem Ipsum</text>
	<text transform="matrix(1 0 0 1 1045.7207 179.4846)" class="st4 st5 st8">Lorem Ipsum Cit Ipsum</text>
	<text transform="matrix(1 0 0 1 1045.7207 103.137)" class="st4 st5 st8">Lorem Ipsum Cit Dolor Amet Ipsum</text>
	<text transform="matrix(1 0 0 1 816.2184 103.1368)" class="st4 st5 st8">Lorem Ipsum Cit Dolor Amet Ipsum</text>
	<text transform="matrix(1 0 0 1 867.6993 72.2925)" class="st4 st5 st8">Lorem Ipsum</text>
	<g>
		<g>
			<rect x="1043.27" y="389.52" class="st1" width="38.21" height="29.28"/>
		</g>
		<text transform="matrix(1 0 0 1 1092.5443 393.7098)" class="st4 st5 st6">Lorem Ipsum</text>
	</g>
	<g>
		<g>
			<rect x="1043.27" y="351.89" class="st1" width="38.21" height="29.28"/>
		</g>
		<text transform="matrix(1 0 0 1 1092.5443 356.0804)" class="st4 st5 st6">Lorem Ipsum</text>
	</g>
	<g>
		<g>
			<rect x="1043.27" y="314.26" class="st1" width="38.21" height="29.28"/>
		</g>
		<text transform="matrix(1 0 0 1 1092.5443 318.4514)" class="st4 st5 st6">Lorem Ipsum</text>
	</g>
	<text transform="matrix(1 0 0 1 818.4603 525.2691)" class="st4 st5 st6">Lorem Ipsum</text>
	<text transform="matrix(1 0 0 1 818.4603 538.7695)" class="st4 st9 st10">Lorem Ipsum</text>
	<text transform="matrix(1 0 0 1 818.4603 543.3496)" class="st4 st9 st10">Lorem Ipsum</text>
	<text transform="matrix(1 0 0 1 818.4603 547.9298)" class="st4 st9 st10">Lorem Ipsum</text>
	<text transform="matrix(1 0 0 1 818.4603 552.51)" class="st4 st9 st10">Lorem Ipsum</text>
	<text transform="matrix(1 0 0 1 899.1835 538.7695)" class="st4 st9 st10">Lorem Ipsum</text>
	<text transform="matrix(1 0 0 1 899.1835 543.3496)" class="st4 st9 st10">Lorem Ipsum</text>
	<text transform="matrix(1 0 0 1 899.1835 547.9298)" class="st4 st9 st10">Lorem Ipsum</text>
	<text transform="matrix(1 0 0 1 899.1835 552.51)" class="st4 st9 st10">Lorem Ipsum</text>
	<text transform="matrix(1 0 0 1 899.1835 557.3518)" class="st4 st9 st10">Lorem Ipsum</text>
	<text transform="matrix(1 0 0 1 979.9068 538.7695)" class="st4 st9 st10">Lorem Ipsum</text>
	<text transform="matrix(1 0 0 1 979.9068 543.3496)" class="st4 st9 st10">Lorem Ipsum</text>
	<text transform="matrix(1 0 0 1 979.9068 547.9298)" class="st4 st9 st10">Lorem Ipsum</text>
	<text transform="matrix(1 0 0 1 1060.63 538.7695)" class="st4 st9 st10">Lorem Ipsum</text>
	<text transform="matrix(1 0 0 1 1060.63 543.3496)" class="st4 st9 st10">Lorem Ipsum</text>
	<text transform="matrix(1 0 0 1 1060.63 547.9298)" class="st4 st9 st10">Lorem Ipsum</text>
	<text transform="matrix(1 0 0 1 1060.63 552.51)" class="st4 st9 st10">Lorem Ipsum</text>
	<text transform="matrix(1 0 0 1 898.8925 525.2691)" class="st4 st5 st6">Lorem Ipsum</text>
	<text transform="matrix(1 0 0 1 979.3242 525.2691)" class="st4 st5 st6">Lorem Ipsum</text>
	<text transform="matrix(1 0 0 1 1059.7562 525.2691)" class="st4 st5 st6">Lorem Ipsum</text>
	<text transform="matrix(1 0 0 1 826.7992 333.7954)" class="st4 st5 st6">Lorem Ipsum</text>
	<text transform="matrix(1 0 0 1 826.7992 363.9606)" class="st4 st5 st6">Lorem Ipsum</text>
	<text transform="matrix(1 0 0 1 921.0189 333.7954)" class="st4 st5 st6">Lorem Ipsum</text>
	<rect x="818" y="208.98" class="st12" width="197.39" height="98.18"/>
	<text transform="matrix(1 0 0 1 817.9957 212.5621)" class="st9 st6">         </text>
	<text transform="matrix(1 0 0 1 817.9957 212.5621)" class="st4 st5 st6">Lorem ipsum dolor sit amet, consectetur adipiscing elit, sed do eiusmod tempor </text>
	<text transform="matrix(1 0 0 1 1009.9757 212.5621)" class="st9 st6">         </text>
	<text transform="matrix(1 0 0 1 817.9957 218.5621)" class="st4 st5 st6">incididunt ut labore et dolore magna aliqua. Ut enim ad minim veniam, quis </text>
	<text transform="matrix(1 0 0 1 997.7443 218.5621)" class="st9 st6">         </text>
	<text transform="matrix(1 0 0 1 817.9957 224.5621)" class="st4 st5 st6">nostrud exercitation ullamco laboris nisi ut aliquip ex ea commodo consequat. </text>
	<text transform="matrix(1 0 0 1 1006.089 224.5621)" class="st9 st6">         </text>
	<text transform="matrix(1 0 0 1 817.9957 230.5621)" class="st4 st5 st6">Duis aute irure dolor in reprehenderit in voluptate velit esse cillum dolore eu fugiat </text>
	<text transform="matrix(1 0 0 1 1015.8131 230.5621)" class="st9 st6">         </text>
	<text transform="matrix(1 0 0 1 817.9957 236.5621)" class="st4 st5 st6">nulla pariatur. Excepteur sint occaecat cupidatat non proident, sunt in culpa qui </text>
	<text transform="matrix(1 0 0 1 1008.86 236.5621)" class="st9 st6">         </text>
	<text transform="matrix(1 0 0 1 817.9957 242.5621)" class="st4 st5 st6">officia deserunt mollit anim id est laborum.</text>
	<text transform="matrix(1 0 0 1 919.9562 242.5621)" class="st9 st6">         </text>
	<text transform="matrix(1 0 0 1 817.9957 254.5621)" class="st4 st9 st6">Lorem ipsum dolor sit amet, consectetur adipiscing elit, sed do eiusmod tempor </text>
	<text transform="matrix(1 0 0 1 994.7462 254.5621)" class="st9 st6">         </text>
	<text transform="matrix(1 0 0 1 817.9957 260.5621)" class="st4 st9 st6">incididunt ut labore et dolore magna aliqua. Ut enim ad minim veniam, quis nostrud </text>
	<text transform="matrix(1 0 0 1 1002.8175 260.5621)" class="st9 st6">         </text>
	<text transform="matrix(1 0 0 1 817.9957 266.5621)" class="st4 st9 st6">exercitation ullamco laboris nisi ut aliquip ex ea commodo consequat. Duis aute irure </text>
	<text transform="matrix(1 0 0 1 1006.7042 266.5621)" class="st9 st6">         </text>
	<text transform="matrix(1 0 0 1 817.9957 272.5621)" class="st4 st9 st6">dolor in reprehenderit in voluptate velit esse cillum dolore eu fugiat nulla pariatur. </text>
	<text transform="matrix(1 0 0 1 997.5441 272.5621)" class="st9 st6">         </text>
	<text transform="matrix(1 0 0 1 817.9957 278.5621)" class="st4 st9 st6">Excepteur sint occaecat cupidatat non proident, sunt in culpa qui officia deserunt mollit </text>
	<text transform="matrix(1 0 0 1 1010.5177 278.5621)" class="st9 st6">         </text>
	<text transform="matrix(1 0 0 1 817.9957 284.5621)" class="st4 st9 st6">anim id est laborum.</text>
	<text transform="matrix(1 0 0 1 863.0153 284.5621)" class="st9 st6">         </text>
	<text transform="matrix(1 0 0 1 817.9957 296.5621)" class="st4 st9 st6">Lorem ipsum dolor sit amet, consectetur adipiscing elit, sed do eiusmod tempor </text>
	<text transform="matrix(1 0 0 1 994.7462 296.5621)" class="st9 st6">         </text>
	<text transform="matrix(1 0 0 1 817.9957 302.5621)" class="st4 st9 st6">incididunt ut labore et dolore magna aliqua.</text>
	<text transform="matrix(1 0 0 1 913.6158 302.5621)" class="st9 st6">        </text>
</g>
</svg>
