<?xml version="1.0" encoding="utf-8"?>
<!-- Generator: Adobe Illustrator 24.1.3, SVG Export Plug-In . SVG Version: 6.00 Build 0)  -->
<svg version="1.1" id="Layer_1" xmlns="http://www.w3.org/2000/svg" xmlns:xlink="http://www.w3.org/1999/xlink" x="0px" y="0px"
	 viewBox="0 0 12 12" style="enable-background:new 0 0 12 12;" xml:space="preserve">
<style type="text/css">
	.st0{fill:#FFFFFF;}
</style>
<path class="st0" d="M6,1.5c0.8,0,1.5,0.7,1.5,1.5S6.8,4.5,6,4.5S4.5,3.8,4.5,3S5.2,1.5,6,1.5 M6,8.3c2,0,4.3,1,4.5,1.5v0.8h-9V9.8
	C1.6,9.2,4,8.3,6,8.3 M6,0C4.3,0,3,1.3,3,3s1.3,3,3,3s3-1.3,3-3S7.7,0,6,0z M6,6.8c-2,0-6,1-6,3V12h12V9.8C12,7.8,8,6.8,6,6.8z"/>
</svg>
