<?xml version="1.0" encoding="utf-8"?>
<!-- Generator: Adobe Illustrator 24.1.3, SVG Export Plug-In . SVG Version: 6.00 Build 0)  -->
<svg version="1.1" id="Layer_1" xmlns="http://www.w3.org/2000/svg" xmlns:xlink="http://www.w3.org/1999/xlink" x="0px" y="0px"
	 viewBox="0 0 15 13.5" style="enable-background:new 0 0 15 13.5;" xml:space="preserve">
<style type="text/css">
	.st0{fill:#FFFFFF;}
</style>
<g>
	<g>
		<path class="st0" d="M6,6c1.7,0,3-1.3,3-3S7.7,0,6,0S3,1.3,3,3S4.3,6,6,6z M6,1.5c0.8,0,1.5,0.7,1.5,1.5S6.8,4.5,6,4.5
			S4.5,3.8,4.5,3S5.2,1.5,6,1.5z"/>
		<path class="st0" d="M1.5,10.5C1.7,10,4,9,6,9c0-0.5,0.1-1,0.3-1.5c-2-0.1-6.3,0.9-6.3,3V12h7.2c-0.4-0.4-0.7-0.9-0.9-1.5H1.5z"/>
		<path class="st0" d="M13.1,10.5c0.3-0.4,0.4-1,0.4-1.5c0-1.7-1.3-3-3-3s-3,1.3-3,3s1.3,3,3,3c0.6,0,1.1-0.2,1.5-0.4
			c0.7,0.7,1.2,1.2,1.9,1.9l1.1-1.1C13.9,11.3,14.4,11.8,13.1,10.5z M10.5,10.5C9.7,10.5,9,9.8,9,9s0.7-1.5,1.5-1.5S12,8.2,12,9
			S11.3,10.5,10.5,10.5z"/>
	</g>
</g>
</svg>
