<?xml version="1.0" encoding="utf-8"?>
<!-- Generator: Adobe Illustrator 24.1.3, SVG Export Plug-In . SVG Version: 6.00 Build 0)  -->
<svg version="1.1" id="Layer_1" xmlns="http://www.w3.org/2000/svg" xmlns:xlink="http://www.w3.org/1999/xlink" x="0px" y="0px"
	 viewBox="0 0 18 18" style="enable-background:new 0 0 18 18;" xml:space="preserve">
<path d="M4.7,3.6L3.2,2.1L2.1,3.3l1.5,1.5L4.7,3.6z M2.5,8.2H0v1.6h2.5V8.2z M9.8,0.1H8.2v2.4h1.6C9.8,2.5,9.8,0.1,9.8,0.1z
	 M15.9,3.3l-1.2-1.2l-1.5,1.5l1.2,1.2L15.9,3.3z M13.3,14.5l1.5,1.5l1.2-1.2l-1.5-1.5C14.4,13.3,13.3,14.5,13.3,14.5z M15.5,8.2v1.6
	H18V8.2H15.5z M9,4.1C6.3,4.1,4.1,6.3,4.1,9s2.2,4.9,4.9,4.9s4.9-2.2,4.9-4.9S11.7,4.1,9,4.1z M8.2,18h1.6v-2.4H8.2V18z M2.1,14.8
	L3.2,16l1.5-1.5l-1.2-1.2L2.1,14.8z"/>
</svg>
