<?xml version="1.0" encoding="utf-8"?>
<!-- Generator: Adobe Illustrator 24.1.3, SVG Export Plug-In . SVG Version: 6.00 Build 0)  -->
<svg version="1.1" id="Layer_1" xmlns="http://www.w3.org/2000/svg" xmlns:xlink="http://www.w3.org/1999/xlink" x="0px" y="0px"
	 viewBox="0 0 18 18" style="enable-background:new 0 0 18 18;" xml:space="preserve">
<style type="text/css">
	.st0{fill:#FFFFFF;}
</style>
<g>
	<g>
		<g>
			<path class="st0" d="M9.4,9.1C7.3,5,8.9,1.5,9.9,0C5,0.2,1.2,4.1,1.2,9c0,0.1,0,0.3,0,0.4C1.8,9.1,2.4,9,3,9
				c1.5,0,2.9,0.7,3.7,1.9c1.5,0.4,2.6,1.8,2.6,3.5c0,1.4-0.8,2.5-1.9,3.1c0.9,0.3,1.8,0.4,2.8,0.4c3.1,0,5.9-1.6,7.5-4.1
				C15.6,14.1,11.4,13.1,9.4,9.1z"/>
		</g>
		<path class="st0" d="M5.7,12.6H5.5c-0.4-1-1.4-1.8-2.5-1.8c-1.5,0-2.7,1.2-2.7,2.7s1.2,2.7,2.7,2.7c0.6,0,2.2,0,2.7,0
			c1,0,1.8-0.8,1.8-1.8S6.7,12.6,5.7,12.6z"/>
	</g>
</g>
</svg>
